<?xml version="1.0" encoding="utf-8"?>
<!-- Generator: Adobe Illustrator 27.6.1, SVG Export Plug-In . SVG Version: 6.00 Build 0)  -->
<svg version="1.1" id="Layer_1" xmlns="http://www.w3.org/2000/svg" xmlns:xlink="http://www.w3.org/1999/xlink" x="0px" y="0px"
	 viewBox="0 0 148 91" style="enable-background:new 0 0 148 91;" xml:space="preserve">
<style type="text/css">
	.st0{fill:#2C2B7D;}
	.st1{fill:#919395;}
</style>
<g>
	<g>
		<g>
			<g>
				<g>
					<g>
						<path class="st0" d="M81.24,30.35c1.09,0,0.73,0,1.84,0c0.64,0.96,1.02,1.54,1.74,2.68c0.18-0.23,0.3-0.38,0.42-0.52
							c2.23-2.75,6.14-3.34,9-1.34c1.32,0.93,2.12,2.25,2.52,3.78c0.73,2.73,0.66,5.45-0.42,8.07c-1.17,2.84-3.37,4.42-6.37,4.95
							c-1.61,0.28-3.2,0.19-4.78-0.21c-0.08-0.02-0.17-0.03-0.3-0.05c0,0.19,0,0.36,0,0.53c0,2.18-0.01,4.36,0.01,6.55
							c0,0.31-0.06,0.46-0.42,0.48c-0.96,0.05-1.92,0.14-2.92,0.22C81.32,47.07,81.83,38.72,81.24,30.35z M84.89,39.94
							c0,1.79,0.01,3.58-0.01,5.37c0,0.37,0.13,0.57,0.43,0.76c2.66,1.68,5.95,0.82,7.33-2.02c1.3-2.7,1.45-5.53,0.61-8.39
							c-0.39-1.33-1.21-2.39-2.54-2.96c-1.85-0.79-3.95-0.32-5.53,1.24c-0.15,0.15-0.26,0.42-0.27,0.63
							C84.88,36.35,84.89,38.14,84.89,39.94z"/>
						<path class="st0" d="M134.84,35.93c0-0.6-0.06-1.22-0.17-1.81c-0.37-1.96-1.42-3.38-3.43-3.89c-2.23-0.57-4.32-0.2-6.16,1.2
							c-0.71,0.54-1.33,1.18-2.03,1.81c-0.03-0.29-0.07-0.58-0.1-0.86c-0.03-0.3-0.07-0.6-0.09-0.91c-0.09-1.15-0.09-1.15-1.24-1.15
							c-0.73,0-1.47,0-2.23,0c0.57,5.31,0.22,10.59,0.32,15.85v1.6h0.04c1.12,0,2.2,0,3.34,0c0,0,0.01,0,0.01,0c0-0.2,0-0.38,0-0.56
							c0-3.99,0.01-7.98-0.01-11.97c0-0.55,0.15-0.9,0.59-1.22c1.24-0.89,2.51-1.65,4.1-1.7c1.68-0.05,2.9,0.74,3.39,2.33
							c0.21,0.69,0.28,1.45,0.29,2.18c0.03,3.47,0.01,6.94,0.01,10.41c0,0.17,0,0.34,0,0.51c0,0,0,0,0,0v0.02h3.38v-4.09h0
							C134.85,41.1,134.85,38.52,134.84,35.93z"/>
						<path class="st0" d="M115.58,34.39L115.58,34.39l0-0.58c0-0.07,0-0.15,0-0.22v-3.23h-0.06c-1.11,0-2.2,0-3.34,0c0,0,0,0,0,0
							c0,0.19,0,0.36,0,0.53c0,4-0.01,8,0.01,12.01c0,0.52-0.16,0.85-0.56,1.15c-1.18,0.9-2.4,1.66-3.95,1.71
							c-1.66,0.05-2.83-0.67-3.34-2.26c-0.23-0.71-0.31-1.5-0.32-2.26c-0.03-3.45-0.01-6.91-0.01-10.36c0-0.17,0-0.34,0-0.53
							c0,0,0,0,0,0c-1.15,0-2.24,0-3.35,0h-0.03v4.09h0c0,2.53,0,5.06,0.01,7.59c0,0.63,0.05,1.27,0.17,1.89
							c0.38,2.02,1.45,3.48,3.54,4c2.19,0.54,4.2,0.1,5.96-1.3c0.66-0.52,1.25-1.15,1.9-1.76c0.75,1.12,1.23,1.8,1.89,2.91
							c1.14,0,0.66,0,1.78,0C115.39,43.31,115.57,38.85,115.58,34.39z"/>
						<path class="st0" d="M55.52,38.84c-3.9,0-7.67,0-11.44,0c-0.1,3.23,1.55,6.79,5.53,7.24c1.75,0.2,3.43-0.1,5.04-0.77
							c0.09-0.04,0.18-0.07,0.29-0.11c0.14,0.45-0.01,0.73-0.36,1.01c-2.61,2.02-7.12,2.83-10.41,0.56c-1.88-1.29-3-3.11-3.47-5.31
							c-0.62-2.89-0.28-5.63,1.4-8.13c2.25-3.35,6.97-4.39,10.29-2.25c1.63,1.05,2.49,2.64,2.82,4.49
							C55.41,36.63,55.52,37.64,55.52,38.84z M52.14,37.34c-0.02-1.58-0.15-3.07-0.91-4.42c-1.07-1.92-3.43-2.29-5.06-0.81
							c-0.95,0.86-1.46,1.97-1.76,3.17c-0.2,0.81-0.32,1.41-0.32,2.55C46.89,37.66,49.42,37.5,52.14,37.34z"/>
						<path class="st0" d="M65.8,44.52c0.99,0.57,1.91,1.18,2.88,1.67c1.35,0.68,2.8,0.92,4.3,0.58c0.96-0.22,1.82-0.63,2.28-1.56
							c0.53-1.08,0.21-2.34-0.86-3.05c-0.81-0.54-1.7-0.98-2.59-1.38c-1.25-0.56-2.56-0.99-3.7-1.79c-1.59-1.11-2.45-2.58-2.21-4.54
							c0.23-1.93,1.43-3.17,3.17-3.91c1.87-0.79,3.8-0.65,5.71-0.21c0.67,0.15,1.32,0.42,1.97,0.66c0.12,0.05,0.25,0.11,0.25,0.29
							c0.02,0.72,0.01,1.44,0.01,2.24c-0.45-0.33-0.83-0.63-1.22-0.91c-1.28-0.9-2.67-1.49-4.29-1.37
							c-1.48,0.11-2.61,1.06-2.74,2.37c-0.12,1.29,0.54,2.18,1.62,2.72c1.31,0.66,2.68,1.22,4.02,1.83c1.03,0.47,2.03,1,2.78,1.88
							c1.58,1.88,1.35,4.69-0.51,6.36c-1.43,1.27-3.15,1.72-5.01,1.73c-1.9,0.01-3.73-0.39-5.49-1.12
							c-0.26-0.11-0.38-0.24-0.37-0.54C65.81,45.82,65.8,45.16,65.8,44.52z"/>
						<path class="st0" d="M61.95,47.77c-1.11,0-2.21,0-3.33,0c0-8.42,0-16.82,0-25.28c1.09-0.17,2.2-0.34,3.33-0.51
							C61.95,30.59,61.95,39.17,61.95,47.77z"/>
					</g>
					<g>
						<path class="st0" d="M28.31,24.83l0.17-0.19c0.85-0.95,1.93-1.85,3.22-2.66h-1.64c-1.54,0.76-3.05,1.87-4.47,3.29
							c-3.62,3.63-5.53,7.73-6.15,9.08c-0.17,0.37-0.6,1.22-1.01,2.04c-0.32,0.63-0.63,1.27-0.85,1.71l-0.13,0.27l-0.12-0.27
							c-0.41-0.94-1.33-3-1.68-3.72c-2.43-5.05-5.78-9.21-9.95-12.37l-5.49-0.02c4.33,3.3,7.53,6.89,10.07,11.26
							c2.38,4.09,4.59,9.31,6.23,14.69h0.82c0.64-2.82,2.06-8.14,4.47-12.92C25.15,28.38,26.21,27.2,28.31,24.83z"/>
						<path class="st0" d="M43.32,24.83l0.17-0.19c0.85-0.95,1.93-1.85,3.22-2.66h-1.64c-1.54,0.76-3.05,1.87-4.47,3.29
							c-3.62,3.63-5.53,7.73-6.15,9.08c-0.17,0.37-0.6,1.22-1.01,2.04c-0.32,0.63-0.63,1.27-0.85,1.71l-0.13,0.27l-0.12-0.27
							c-0.41-0.94-1.33-3-1.68-3.72c-2.43-5.05-5.78-9.21-9.95-12.37l-5.49-0.02c4.33,3.3,7.53,6.89,10.07,11.26
							c2.38,4.09,4.59,9.31,6.23,14.69h0.82c0.64-2.82,2.06-8.14,4.47-12.92C40.16,28.38,41.22,27.2,43.32,24.83z"/>
					</g>
				</g>
				<g>
					<path class="st0" d="M141.31,17.42c-3.57,0-6.46,2.89-6.46,6.46s2.89,6.46,6.46,6.46c3.57,0,6.46-2.89,6.46-6.46
						S144.88,17.42,141.31,17.42z M145.42,22.75l-0.04,0.04c-0.38,0.4-0.87,0.98-1.3,1.91c-0.43,0.94-0.62,1.78-0.75,2.34
						c-0.02,0.1-0.04,0.18-0.06,0.26l-0.01,0.03h-0.34l-0.01-0.02c-0.03-0.05-0.09-0.24-0.15-0.44c-0.02-0.06-0.03-0.1-0.04-0.12
						c-0.17-0.45-0.33-0.84-0.51-1.21c-0.25-0.51-0.53-0.99-0.85-1.44c-0.1,0.18-0.21,0.38-0.3,0.59c-0.43,0.94-0.62,1.78-0.75,2.34
						c-0.02,0.1-0.04,0.18-0.06,0.26l-0.01,0.03h-0.34l-0.01-0.02c-0.03-0.05-0.09-0.24-0.15-0.44c-0.02-0.06-0.03-0.1-0.04-0.12
						c-0.17-0.45-0.33-0.84-0.51-1.21c-0.65-1.35-1.58-2.5-2.69-3.31l-0.1-0.07l1.45,0l0.01,0.01c0.1,0.07,0.21,0.15,0.31,0.25
						c0.23,0.22,0.39,0.39,0.57,0.61c0.22,0.27,0.44,0.57,0.69,0.95c0.12,0.18,0.25,0.41,0.38,0.65l0.03,0.06
						c0.1,0.19,0.19,0.36,0.29,0.55c0.06-0.11,0.11-0.23,0.15-0.34c0.05-0.11,0.09-0.22,0.15-0.33c0.13-0.26,0.27-0.5,0.42-0.73
						c0.04-0.07,0.1-0.13,0.14-0.19c-0.44-0.54-0.94-1.02-1.48-1.41l-0.1-0.07l1.45,0l0.01,0.01c0.1,0.07,0.21,0.15,0.31,0.25
						c0.18,0.17,0.31,0.31,0.45,0.47c0.02-0.02,0.05-0.05,0.07-0.07c0.3-0.28,0.62-0.5,0.95-0.65l0.02,0h0.49l-0.12,0.07
						c-0.27,0.16-0.5,0.33-0.67,0.51l-0.04,0.04c-0.13,0.13-0.26,0.29-0.41,0.46c0.17,0.22,0.33,0.45,0.52,0.73
						c0.12,0.18,0.26,0.41,0.38,0.65l0.03,0.05c0.1,0.19,0.19,0.36,0.29,0.56c0.06-0.11,0.11-0.23,0.15-0.34
						c0.05-0.11,0.09-0.22,0.15-0.33c0.13-0.26,0.27-0.5,0.43-0.73c0.26-0.38,0.54-0.72,0.86-1.01c0.3-0.28,0.62-0.5,0.95-0.65
						l0.02,0h0.49l-0.12,0.07C145.82,22.4,145.6,22.57,145.42,22.75z"/>
				</g>
			</g>
		</g>
	</g>
	<g>
		<path class="st1" d="M49.04,73.4V60.73h7.86v1.65h-5.95v3.86h5.38v1.64h-5.38v5.52H49.04z"/>
		<path class="st1" d="M59.25,73.4V60.73h1.91v11.02h5.74v1.65H59.25z"/>
		<path class="st1" d="M79.59,67.07c0,1.35-0.25,2.51-0.74,3.49c-0.49,0.97-1.17,1.72-2.03,2.24c-0.86,0.52-1.84,0.78-2.93,0.78
			c-1.1,0-2.08-0.26-2.94-0.78c-0.86-0.52-1.54-1.27-2.03-2.24c-0.49-0.97-0.74-2.13-0.74-3.48c0-1.35,0.25-2.52,0.74-3.49
			c0.49-0.97,1.17-1.72,2.03-2.24c0.86-0.52,1.84-0.78,2.94-0.78c1.09,0,2.07,0.26,2.93,0.78c0.86,0.52,1.54,1.27,2.03,2.24
			C79.34,64.55,79.59,65.72,79.59,67.07z M77.7,67.07c0-1.03-0.17-1.9-0.5-2.61c-0.33-0.71-0.79-1.24-1.36-1.61
			c-0.58-0.36-1.23-0.55-1.95-0.55c-0.73,0-1.38,0.18-1.96,0.55c-0.57,0.37-1.03,0.9-1.36,1.61c-0.33,0.71-0.5,1.58-0.5,2.61
			c0,1.03,0.17,1.9,0.5,2.61c0.33,0.71,0.78,1.24,1.36,1.61c0.57,0.36,1.22,0.55,1.96,0.55c0.73,0,1.38-0.18,1.95-0.55
			c0.58-0.37,1.03-0.9,1.36-1.61C77.53,68.97,77.7,68.1,77.7,67.07z"/>
		<path class="st1" d="M92.97,67.07c0,1.35-0.25,2.51-0.74,3.49c-0.49,0.97-1.17,1.72-2.03,2.24c-0.86,0.52-1.84,0.78-2.93,0.78
			c-1.1,0-2.08-0.26-2.94-0.78c-0.86-0.52-1.54-1.27-2.03-2.24c-0.49-0.97-0.74-2.13-0.74-3.48c0-1.35,0.25-2.52,0.74-3.49
			c0.49-0.97,1.17-1.72,2.03-2.24c0.86-0.52,1.84-0.78,2.94-0.78c1.09,0,2.07,0.26,2.93,0.78c0.86,0.52,1.54,1.27,2.03,2.24
			C92.72,64.55,92.97,65.72,92.97,67.07z M91.08,67.07c0-1.03-0.17-1.9-0.5-2.61c-0.33-0.71-0.79-1.24-1.36-1.61
			c-0.58-0.36-1.23-0.55-1.95-0.55c-0.73,0-1.38,0.18-1.96,0.55c-0.57,0.37-1.03,0.9-1.36,1.61c-0.33,0.71-0.5,1.58-0.5,2.61
			c0,1.03,0.17,1.9,0.5,2.61c0.33,0.71,0.78,1.24,1.36,1.61c0.57,0.36,1.22,0.55,1.96,0.55c0.73,0,1.38-0.18,1.95-0.55
			c0.58-0.37,1.03-0.9,1.36-1.61C90.91,68.97,91.08,68.1,91.08,67.07z"/>
		<path class="st1" d="M95.35,73.4V60.73h4.52c0.98,0,1.8,0.17,2.45,0.51c0.65,0.34,1.14,0.81,1.46,1.4
			c0.32,0.6,0.48,1.28,0.48,2.06c0,0.78-0.16,1.46-0.49,2.04c-0.32,0.59-0.81,1.04-1.46,1.37s-1.47,0.49-2.45,0.49h-3.42v-1.65h3.25
			c0.62,0,1.12-0.09,1.51-0.27c0.39-0.18,0.68-0.44,0.86-0.77c0.18-0.34,0.27-0.74,0.27-1.22c0-0.48-0.09-0.89-0.28-1.24
			c-0.18-0.35-0.47-0.62-0.86-0.81c-0.39-0.19-0.9-0.28-1.53-0.28h-2.4V73.4H95.35z M101.6,67.69l3.13,5.72h-2.18l-3.07-5.72H101.6z
			"/>
		<path class="st1" d="M108.49,60.73V73.4h-1.91V60.73H108.49z"/>
		<path class="st1" d="M121.5,60.73V73.4h-1.76l-6.44-9.29h-0.12v9.29h-1.91V60.73h1.77l6.45,9.3h0.12v-9.3H121.5z"/>
		<path class="st1" d="M132.86,64.74c-0.12-0.38-0.28-0.71-0.48-1.01c-0.2-0.3-0.44-0.55-0.71-0.77c-0.28-0.21-0.59-0.37-0.94-0.49
			c-0.35-0.11-0.74-0.17-1.16-0.17c-0.71,0-1.36,0.18-1.93,0.55c-0.57,0.37-1.03,0.9-1.36,1.61c-0.33,0.71-0.5,1.57-0.5,2.6
			c0,1.03,0.17,1.9,0.5,2.6s0.79,1.25,1.37,1.61c0.58,0.37,1.24,0.55,1.99,0.55c0.69,0,1.29-0.14,1.8-0.42
			c0.51-0.28,0.91-0.68,1.19-1.19c0.28-0.51,0.42-1.12,0.42-1.82l0.49,0.09h-3.63v-1.58h4.98v1.44c0,1.06-0.23,1.99-0.68,2.77
			c-0.45,0.78-1.07,1.38-1.87,1.81c-0.79,0.42-1.7,0.64-2.72,0.64c-1.15,0-2.15-0.26-3.02-0.79c-0.86-0.53-1.54-1.28-2.02-2.25
			c-0.48-0.97-0.72-2.13-0.72-3.46c0-1.01,0.14-1.92,0.42-2.72c0.28-0.8,0.68-1.49,1.18-2.05c0.51-0.56,1.11-0.99,1.8-1.29
			c0.69-0.3,1.45-0.45,2.27-0.45c0.68,0,1.32,0.1,1.91,0.3c0.59,0.2,1.12,0.49,1.58,0.86c0.46,0.37,0.85,0.81,1.15,1.32
			c0.31,0.51,0.51,1.07,0.62,1.69H132.86z"/>
	</g>
</g>
</svg>
